REM MD5 0fabae96db819b29460028fa58bddebb
FILE "Interactive CD Sampler Disk Volume 5 (USA) (SCUS-94224).bin" BINARY
  TRACK 01 MODE2/2352
    INDEX 01 00:00:00
  TRACK 02 AUDIO
    INDEX 00 45:31:12
    INDEX 01 45:33:12
  TRACK 03 AUDIO
    INDEX 00 47:28:12
    INDEX 01 47:30:12
  TRACK 04 AUDIO
    INDEX 00 50:28:74
    INDEX 01 50:30:74
  TRACK 05 AUDIO
    INDEX 00 51:11:74
    INDEX 01 51:13:74
  TRACK 06 AUDIO
    INDEX 00 52:18:02
    INDEX 01 52:20:02
REM LEADOUT 53:18:73
